<?xml version="1.0" encoding="UTF-8" standalone="no"?>
<!-- Created with Inkscape (http://www.inkscape.org/) -->

<svg
   width="300"
   height="300"
   viewBox="0 0 300 300"
   version="1.1"
   id="svg1"
   xml:space="preserve"
   xmlns="http://www.w3.org/2000/svg"
   xmlns:svg="http://www.w3.org/2000/svg"><defs
     id="defs1" /><g
     id="layer1"
     style="mix-blend-mode:normal;fill:#000000"><rect
       style="fill:#000000"
       id="rect2"
       width="300"
       height="300"
       x="0"
       y="0" /><path
       style="fill:#ffffff"
       d="M 135.80627,251.2864 C 91.888841,243.97963 60.388431,214.4199 50.268547,171.01849 48.439242,163.1731 48.306265,158.70882 48.306265,105.14152 V 47.680253 l 50.249996,8.3e-4 c 53.049609,8.9e-4 67.864759,0.77657 79.250009,4.14935 36.12477,10.70162 62.49339,38.56954 71.61714,75.689207 3.01165,12.25281 3.02955,33.18275 0.0386,45.16061 -7.18777,28.78513 -22.97386,50.30553 -47.9078,65.31032 -19.01914,11.44537 -45.13145,16.72591 -65.74797,13.29583 z m 28.0399,-52.1485 c 7.98346,-2.06594 15.76359,-6.75622 22.60923,-13.63005 6.86297,-6.89123 11.24585,-15.47651 13.54936,-26.54078 1.60917,-7.72921 1.61022,-8.73094 0.0178,-17 -3.88554,-20.17652 -14.6801,-32.95838 -33.814,-40.03922 -7.40228,-2.739348 -7.40228,-2.739348 -36.90228,-2.743468 l -29.500009,-0.004 -0.29811,27.499998 c -0.32721,30.18428 0.25247,35.63506 4.873559,45.82666 5.40298,11.916 20.12669,24.137 32.62304,27.07781 6.19047,1.45683 20.39916,1.2203 26.84142,-0.44682 z"
       id="path1" /></g></svg>
